<?xml version="1.0" encoding="utf-8"?>
<!-- Generator: Adobe Illustrator 16.0.0, SVG Export Plug-In . SVG Version: 6.00 Build 0)  -->
<!DOCTYPE svg PUBLIC "-//W3C//DTD SVG 1.1//EN" "http://www.w3.org/Graphics/SVG/1.1/DTD/svg11.dtd">
<svg class="birdwings" version="1.1" id="Layer_1" xmlns="http://www.w3.org/2000/svg" xmlns:xlink="http://www.w3.org/1999/xlink" x="0px" y="0px"
	 width="3019.781px" height="856.859px" viewBox="0 0 3019.781 856.859" enable-background="new 0 0 3019.781 856.859"
	 xml:space="preserve">
<g>
	<path fill="#222222" d="M1482.031,443.207c-6.572-6.572-37.332-5.098-54.578,2.615c-13.887,6.213-15.684,6.012-27.979-3.115
		c-15.921-11.816-49.361-19.825-68.568-16.418c-19.491,3.454-19.791,3.321-38.586-17.365
		c-22.939-25.247-40.816-30.171-70.338-19.371c-37.824,13.838-67.905,19.616-88.13,16.929c-18.711-2.486-21.03-3.765-37.175-20.457
		c-24.323-25.15-29.021-47.189-13.386-62.824c9.678-9.678,8.889-22.875-2.916-48.795c-7.566-16.615-9.586-18.851-26.551-29.397
		c-30.418-18.91-73.978-30.903-107.631-29.631c-16.236,0.613-38.119,1.417-48.627,1.786c-10.507,0.37-24.969,2.592-32.137,4.941
		c-7.169,2.347-23.78,5.758-36.916,7.577c-13.136,1.819-47.019,9.092-75.298,16.161c-115.951,28.984-204.312,40.943-261.262,35.359
		c-185.662-18.205-279.112-50.369-377.124-129.796c-10.698-8.67-22.496-21.985-32.515-36.697
		c-8.648-12.698-22.322-32.453-30.389-43.897c-8.064-11.445-18.612-32.042-23.439-45.771C23.66,11.307,17.824,0.041,15.516,0
		C8.877-0.116,0.175,31.188,0.001,55.815c-0.088,12.352,3.602,33.38,8.2,46.729c7.483,21.722,10.531,26.382,29.037,44.379
		c11.372,11.061,19.706,21.08,18.519,22.266c-2.704,2.705-22.979-3.581-28.114-8.716c-7.372-7.372-8.521,1.027-1.726,12.603
		c2.297,3.913,6.367,9.702,11.262,16.208c3.767,13.608,2.68,27.468,4.698,41.541c0.503,3.514,1.213,6.988,2.078,10.426
		c1.749,17.977,7.019,53.533,9.694,62.319c3.785,12.431,23.592,44.925,33.302,54.635c14.464,14.464,42.743,24.562,73.607,26.288
		c30.538,1.707,34.696,8.383,6.423,10.312c-7.534,0.516-16.601,2.402-21.389,4.378c-1.739-0.055-3.278,0.885-4.318,2.286
		c-2.47,1.574-2.864,2.624-1.38,3.906c-0.068,1.911,0.695,3.873,2.653,5.252c8.864,6.242,12.505,17.343,13.127,27.744
		c0.266,4.449,0.458,8.947,1.184,13.268c-1.382,8.203,5.181,28.439,15.891,46.914c17.394,30.004,37.357,49.906,55.58,55.412
		c7.793,2.354,15.404,5.516,16.915,7.027c1.511,1.51,11.106,2.869,21.325,3.018l18.576,0.273l-9.121,5.477
		c-5.016,3.012-12.835,5.668-17.373,5.904c-4.54,0.236-8.254,1.838-8.254,3.559c0,8.641,65.902,37.324,96.342,41.936
		c10.625,1.609,31.712-0.982,45.232-5.021c-10.037,4.336-20.385,7.957-31.224,10.469c-12.472,2.893-25.323,4.082-38.104,4.375
		c-12.858,0.297-25.848-0.672-37.845-5.621c-0.831-0.344-1.683-0.521-2.537-0.582c-7.208-2.59-12.245-4.25-13.034-4.25
		c-1.392,0-1.187,7.408,0.455,16.467c2.7,14.895,5.164,18.693,25.794,39.801c17.182,17.576,25.66,24.139,34.372,26.6
		c6.36,1.797,12.876,4.564,14.479,6.152c1.604,1.586,11.686,4.061,22.402,5.5c10.716,1.439,24.065,4.047,29.663,5.795
		s18.607,0.66,28.914-2.418c10.306-3.076,19.829-4.502,21.164-3.166c5.538,5.537-5.271,12.104-24.086,14.627l-20.079,2.697
		l9.49,6.426c15.761,10.672,42.49,17.408,70.42,17.742c27.562,0.33,40.615-3.596,73.882-22.227
		c23.905-13.387,29.124-8.979,9.676,8.172l-13.699,12.074l0.327,0.105c-0.318,0.275-0.628,0.598-0.923,0.977
		c-5.029,6.453-10.932,11.062-17.49,14.637c-7.938,2.883-15.999,5.396-24.345,7.086c-0.297,0.059-0.561,0.148-0.801,0.258
		c-0.279-0.08-0.56-0.164-0.838-0.258c-1.874-0.637-3.274,0.299-3.906,1.672c-0.003,0.004-0.006,0.01-0.009,0.014
		c-0.41,0.125-0.718,0.266-0.881,0.43c-3.27,3.27,20.892,26.717,34.945,33.914c22.875,11.717,51.1,21.15,64.477,21.551
		c7.472,0.225,25.508-1.57,40.082-3.99s27.462-3.436,28.639-2.258c4.414,4.414-2.395,10.627-17.389,15.871
		c-8.518,2.979-15.488,7.08-15.486,9.115c-0.001,3.908,47.201,3.975,73.134,0.1c18.178-2.717,38.381-13.658,55.897-30.275
		c9.438-8.951,13.638-11.082,16.396-8.324c2.039,2.039,1.505,6.639-1.188,10.221c-6.27,8.34-0.682,11.078,16.039,7.865
		c12.191-2.342,26.32-9.18,58.812-28.467c6.823-4.051,18.577-10.096,26.116-13.432c16.498-7.303,21.383-11.516,21.979-20.83
		c6.799-10.996,14.798-21.18,22.765-31.373c0.842,12.127,3.959,24.73,9.286,36.488c8.867,19.568,11.594,23.094,21.683,28.02
		c22.578,11.027,31.869,10.137,53.186-5.098c0.975-0.697,2.502-6.955,3.395-13.908c0.895-6.951,1.68-15.531,1.746-19.066
		c0.419-21.701,8.417-46.273,27.527-84.568c5.432-10.883,13.018-28.188,16.86-38.451c1.602-4.279,3.196-8.342,4.577-11.697
		c6.393,1.338,13.043,1.951,19.614,2.443c-11.139,33.998-23.418,66.006-27.227,69.873c-5.791,5.877-16.049,39.635-15.447,50.832
		c0.9,16.742,4.438,25.471,17.757,43.807c18.647,25.67,41.636,33.027,61.4,19.65c28.988-19.623,29.831-21.502,29.206-65.121
		c-0.316-22.115-1.697-45.422-3.067-51.789c-1.369-6.369-0.079-23.789,2.867-38.713c1.604-8.129,2.928-16.506,3.967-24.641
		c5.559,0.033,11.112-0.016,16.654-0.15c-4.71,40.891-6.126,90.865-2.475,101.816c1.935,5.803,3.935,15.693,4.443,21.98
		s4.147,17.592,8.082,25.121c9.703,18.564,30.584,28.23,52.871,24.475c17.854-3.01,17.074-2.512,23.616-15.105
		c2.693-5.189,7.075-12.818,9.734-16.957c3.15-4.902,3.152-11.504,0.002-18.951c-2.656-6.285-6.098-14.611-7.643-18.506
		c-1.545-3.893-7.768-18.803-13.827-33.137c-8.913-21.082-15.21-45.031-20.148-77.293c6.104-1.361,12.17-2.938,18.185-4.736
		c0.233,3.176,0.441,6.424,0.595,9.436c0.469,9.156,8.148,35.205,17.07,57.887c15.029,38.207,17.221,41.924,29.818,50.555
		c7.476,5.123,14.323,9.219,15.215,9.104c20.895-2.709,38.635-15.064,43.18-30.076c2.768-9.141,0.064-14.729-21.003-43.402
		c-5.269-7.17-9.721-14.049-13.721-21.301c-0.001-1.248,0-2.496,0-3.742c-0.003-11.129-2.636-21.703-6.69-31.992
		c-2.123-5.389-2.752-11.334-2.257-17.139c1.889-1.082,3.762-2.215,5.616-3.422c0.206,1.047,0.417,2.094,0.647,3.133
		c1.14,5.119,3.28,10.031,4.962,14.986c3.697,10.896,7.154,21.865,11.52,32.521c4.335,10.582,9.183,20.871,17.465,28.982
		c7.739,7.578,14.574,15.777,23.357,22.23c1.006,0.738,2.136,1.166,3.307,1.354l0.03,0.049l0.193-0.01
		c1.01,0.135,2.046,0.09,3.062-0.113l9.23-0.35c14.692-0.555,15.426-1.123,19.993-15.477c4.611-14.49-0.449-29.168-20.788-60.291
		c-19.417-29.713-31.294-65.406-25.25-75.877c5.981-10.361,23.632-27.35,32.596-31.371c28.903-12.971,45.105-23.475,64.538-41.832
		C1484.207,455.013,1488.029,449.205,1482.031,443.207z"/>
	<path fill="#222222" d="M2982.543,146.923c18.506-17.997,21.553-22.657,29.037-44.379c4.598-13.349,8.287-34.377,8.199-46.729
		c-0.174-24.626-8.875-55.931-15.514-55.814c-2.31,0.041-8.146,11.306-12.974,25.036c-4.825,13.73-15.375,34.327-23.438,45.771
		c-8.066,11.444-21.74,31.199-30.389,43.897c-10.019,14.712-21.816,28.027-32.515,36.697
		c-98.012,79.428-191.463,111.591-377.125,129.796c-56.946,5.583-145.311-6.375-261.262-35.359
		c-28.279-7.068-62.162-14.341-75.297-16.161c-13.135-1.82-29.748-5.229-36.916-7.577c-7.168-2.349-21.631-4.571-32.137-4.941
		c-10.509-0.369-32.392-1.173-48.627-1.786c-33.654-1.271-77.213,10.721-107.631,29.631c-16.966,10.546-18.984,12.782-26.552,29.397
		c-11.805,25.92-12.594,39.118-2.916,48.795c15.636,15.635,10.939,37.674-13.385,62.824c-16.145,16.692-18.465,17.971-37.176,20.457
		c-20.223,2.688-50.305-3.091-88.129-16.929c-29.521-10.8-47.398-5.876-70.338,19.371c-18.795,20.686-19.095,20.819-38.586,17.365
		c-19.207-3.406-52.648,4.602-68.568,16.418c-12.297,9.127-14.094,9.328-27.98,3.115c-17.246-7.713-48.006-9.188-54.578-2.615
		c-5.998,5.998-2.176,11.809,24.091,36.623c19.432,18.357,35.633,28.861,64.536,41.832c8.966,4.021,26.613,21.01,32.597,31.373
		c6.043,10.471-5.834,46.164-25.25,75.875c-20.34,31.125-25.4,45.803-20.789,60.293c4.567,14.354,5.301,14.92,19.994,15.475
		l9.229,0.35c1.019,0.203,2.056,0.25,3.062,0.115l0.194,0.008l0.029-0.049c1.172-0.188,2.301-0.613,3.308-1.354
		c8.782-6.451,15.618-14.65,23.356-22.23c8.283-8.111,13.131-18.4,17.465-28.982c4.365-10.654,7.822-21.625,11.521-32.52
		c1.682-4.957,3.822-9.869,4.961-14.986c0.232-1.039,0.443-2.086,0.647-3.135c1.855,1.207,3.729,2.34,5.617,3.422
		c0.494,5.805-0.135,11.752-2.258,17.141c-4.056,10.289-6.688,20.863-6.689,31.99c0,1.246,0,2.494,0,3.742
		c-4,7.252-8.452,14.131-13.721,21.303c-21.067,28.674-23.771,34.262-21.004,43.4c4.545,15.012,22.285,27.369,43.18,30.078
		c0.892,0.115,7.74-3.98,15.216-9.104c12.598-8.631,14.788-12.35,29.817-50.555c8.922-22.684,16.604-48.73,17.07-57.887
		c0.153-3.012,0.36-6.262,0.596-9.438c6.014,1.801,12.078,3.375,18.184,4.736c-4.938,32.264-11.235,56.211-20.147,77.293
		c-6.062,14.334-12.283,29.246-13.828,33.139s-4.984,12.221-7.643,18.504c-3.15,7.447-3.148,14.049,0.002,18.951
		c2.66,4.139,7.041,11.768,9.735,16.957c6.541,12.596,5.763,12.098,23.615,15.107c22.287,3.756,43.168-5.91,52.871-24.477
		c3.936-7.527,7.572-18.832,8.082-25.119s2.51-16.18,4.444-21.982c3.65-10.949,2.234-60.926-2.475-101.816
		c5.541,0.137,11.096,0.186,16.654,0.152c1.039,8.133,2.361,16.51,3.967,24.641c2.945,14.922,4.236,32.344,2.867,38.711
		c-1.371,6.369-2.752,29.674-3.068,51.789c-0.625,43.619,0.217,45.498,29.207,65.121c19.765,13.377,42.752,6.021,61.4-19.65
		c13.318-18.334,16.854-27.062,17.756-43.805c0.602-11.199-9.656-44.955-15.447-50.834c-3.809-3.865-16.088-35.875-27.227-69.871
		c6.572-0.492,13.223-1.107,19.615-2.445c1.381,3.355,2.977,7.418,4.577,11.699c3.843,10.264,11.429,27.566,16.859,38.449
		c19.111,38.295,27.109,62.867,27.527,84.57c0.067,3.535,0.854,12.115,1.745,19.066c0.894,6.953,2.421,13.211,3.396,13.908
		c21.316,15.232,30.607,16.123,53.187,5.098c10.088-4.926,12.813-8.451,21.682-28.02c5.328-11.76,8.445-24.361,9.287-36.49
		c7.967,10.195,15.965,20.377,22.764,31.373c0.598,9.314,5.48,13.529,21.979,20.832c7.539,3.336,19.293,9.381,26.117,13.432
		c32.492,19.287,46.621,26.125,58.812,28.467c16.721,3.213,22.309,0.473,16.039-7.867c-2.691-3.58-3.228-8.18-1.188-10.221
		c2.759-2.758,6.957-0.625,16.396,8.326c17.518,16.617,37.721,27.559,55.897,30.273c25.933,3.877,73.136,3.811,73.134-0.1
		c0.002-2.035-6.97-6.137-15.486-9.113c-14.994-5.244-21.803-11.457-17.389-15.871c1.178-1.18,14.063-0.162,28.639,2.258
		c14.574,2.418,32.611,4.215,40.082,3.99c13.377-0.4,41.602-9.834,64.477-21.553c14.055-7.195,38.215-30.645,34.945-33.914
		c-0.162-0.162-0.471-0.303-0.881-0.428c-0.002-0.006-0.006-0.01-0.008-0.014c-0.634-1.373-2.033-2.309-3.906-1.674
		c-0.279,0.096-0.56,0.18-0.84,0.26c-0.24-0.109-0.504-0.199-0.8-0.26c-8.346-1.689-16.407-4.203-24.346-7.084
		c-6.56-3.574-12.461-8.184-17.49-14.637c-0.295-0.379-0.604-0.699-0.922-0.979l0.326-0.104l-13.699-12.076
		c-19.449-17.148-14.229-21.557,9.676-8.17c33.267,18.629,46.318,22.555,73.882,22.225c27.93-0.334,54.659-7.068,70.42-17.742
		l9.489-6.426l-20.077-2.695c-18.814-2.525-29.625-9.09-24.086-14.629c1.334-1.336,10.858,0.09,21.164,3.168
		c10.307,3.078,23.315,4.164,28.914,2.416c5.598-1.748,18.944-4.354,29.662-5.793c10.717-1.439,20.799-3.916,22.401-5.502
		c1.604-1.588,8.119-4.355,14.48-6.152c8.711-2.461,17.188-9.021,34.371-26.6c20.631-21.105,23.094-24.906,25.795-39.799
		c1.641-9.059,1.846-16.469,0.455-16.467c-0.789-0.002-5.826,1.66-13.035,4.248c-0.854,0.062-1.705,0.24-2.535,0.584
		c-11.998,4.949-24.987,5.916-37.846,5.619c-12.781-0.293-25.631-1.48-38.104-4.373c-10.84-2.514-21.188-6.135-31.225-10.469
		c13.521,4.039,34.607,6.631,45.232,5.021c30.438-4.611,96.342-33.295,96.342-41.936c0-1.723-3.713-3.322-8.254-3.561
		c-4.537-0.234-12.357-2.893-17.373-5.904l-9.121-5.477l18.576-0.271c10.219-0.148,19.813-1.508,21.325-3.02
		c1.511-1.512,9.121-4.674,16.914-7.027c18.224-5.506,38.188-25.408,55.58-55.41c10.711-18.477,17.273-38.711,15.892-46.914
		c0.727-4.32,0.918-8.818,1.184-13.27c0.623-10.4,4.264-21.5,13.129-27.743c1.957-1.379,2.721-3.341,2.652-5.252
		c1.484-1.282,1.09-2.332-1.381-3.906c-1.039-1.401-2.578-2.341-4.318-2.286c-4.787-1.976-13.854-3.862-21.389-4.378
		c-28.273-1.929-24.115-8.604,6.424-10.312c30.863-1.726,59.143-11.824,73.607-26.288c9.709-9.71,29.516-42.204,33.301-54.635
		c2.676-8.787,7.945-44.343,9.693-62.319c0.864-3.438,1.575-6.912,2.077-10.426c2.021-14.073,0.933-27.932,4.699-41.541
		c4.896-6.506,8.965-12.296,11.262-16.208c6.798-11.575,5.646-19.975-1.725-12.603c-5.138,5.136-25.41,11.421-28.115,8.716
		C2962.836,168.003,2971.17,157.984,2982.543,146.923z"/>
</g>
</svg>
