<?xml version="1.0" encoding="utf-8"?>
<!-- Generator: Adobe Illustrator 16.0.0, SVG Export Plug-In . SVG Version: 6.00 Build 0)  -->
<!DOCTYPE svg PUBLIC "-//W3C//DTD SVG 1.1//EN" "http://www.w3.org/Graphics/SVG/1.1/DTD/svg11.dtd">
<svg version="1.1" id="Layer_1" xmlns="http://www.w3.org/2000/svg" xmlns:xlink="http://www.w3.org/1999/xlink" x="0px" y="0px"
	 width="3019.781px" height="856.858px" viewBox="0 0 3019.781 856.858" enable-background="new 0 0 3019.781 856.858"
	 xml:space="preserve">
<g>
	<path fill="#F6F6F6" d="M1482.031,443.207c-6.572-6.573-37.332-5.099-54.578,2.615c-13.887,6.212-15.684,6.011-27.979-3.115
		c-15.921-11.816-49.362-19.825-68.569-16.419c-19.491,3.454-19.791,3.32-38.586-17.365c-22.939-25.247-40.816-30.171-70.338-19.371
		c-37.824,13.838-67.905,19.616-88.129,16.928c-18.711-2.486-21.031-3.764-37.175-20.457c-24.324-25.15-29.021-47.189-13.386-62.824
		c9.678-9.678,8.889-22.875-2.916-48.795c-7.566-16.615-9.586-18.851-26.551-29.397c-30.418-18.91-73.977-30.903-107.631-29.631
		c-16.236,0.613-38.119,1.417-48.627,1.786c-10.506,0.37-24.968,2.592-32.136,4.941c-7.169,2.347-23.781,5.758-36.916,7.577
		c-13.136,1.819-47.019,9.092-75.298,16.161c-115.951,28.984-204.313,40.943-261.262,35.359
		c-185.662-18.205-279.112-50.369-377.124-129.796c-10.698-8.67-22.496-21.985-32.515-36.697
		c-8.648-12.698-22.322-32.453-30.389-43.897c-8.064-11.445-18.612-32.042-23.439-45.771C23.66,11.307,17.824,0.041,15.516,0
		C8.877-0.116,0.175,31.188,0.001,55.815c-0.088,12.352,3.602,33.38,8.2,46.729c7.483,21.722,10.531,26.382,29.037,44.379
		c11.372,11.061,19.706,21.08,18.519,22.266c-2.704,2.705-22.979-3.581-28.114-8.716c-7.372-7.372-8.521,1.027-1.726,12.603
		c2.297,3.913,6.367,9.702,11.262,16.208c3.767,13.608,2.68,27.468,4.698,41.541c0.503,3.514,1.213,6.988,2.078,10.426
		c1.749,17.977,7.019,53.533,9.694,62.319c3.785,12.431,23.592,44.925,33.302,54.635c14.464,14.464,42.743,24.563,73.607,26.288
		c30.538,1.707,34.696,8.383,6.423,10.312c-7.534,0.515-16.601,2.402-21.389,4.378c-1.739-0.055-3.278,0.884-4.318,2.286
		c-2.47,1.574-2.864,2.624-1.38,3.906c-0.068,1.911,0.695,3.873,2.653,5.252c8.864,6.242,12.505,17.343,13.127,27.743
		c0.266,4.449,0.458,8.947,1.184,13.269c-1.382,8.203,5.181,28.438,15.891,46.914c17.394,30.003,37.357,49.905,55.58,55.411
		c7.793,2.354,15.404,5.516,16.915,7.027c1.511,1.511,11.106,2.869,21.325,3.019l18.576,0.272l-9.121,5.477
		c-5.016,3.012-12.835,5.669-17.373,5.904c-4.54,0.237-8.254,1.838-8.254,3.56c0,8.64,65.902,37.324,96.342,41.935
		c10.625,1.609,31.712-0.982,45.232-5.021c-10.037,4.335-20.385,7.956-31.224,10.469c-12.472,2.892-25.323,4.081-38.104,4.374
		c-12.858,0.296-25.848-0.671-37.845-5.621c-0.831-0.343-1.683-0.521-2.537-0.583c-7.208-2.588-12.245-4.25-13.034-4.249
		c-1.392-0.001-1.187,7.409,0.455,16.467c2.7,14.894,5.164,18.694,25.794,39.8c17.182,17.576,25.66,24.139,34.372,26.6
		c6.36,1.797,12.876,4.564,14.479,6.152c1.604,1.586,11.686,4.062,22.402,5.501s24.065,4.046,29.663,5.794
		c5.597,1.748,18.607,0.661,28.914-2.417c10.305-3.077,19.829-4.503,21.164-3.167c5.538,5.538-5.272,12.103-24.086,14.628
		l-20.079,2.696l9.49,6.426c15.761,10.673,42.49,17.408,70.42,17.742c27.562,0.33,40.615-3.596,73.882-22.225
		c23.905-13.387,29.124-8.979,9.675,8.17l-13.699,12.076l0.327,0.104c-0.318,0.277-0.628,0.599-0.923,0.978
		c-5.029,6.453-10.931,11.062-17.49,14.636c-7.938,2.882-15.999,5.396-24.345,7.085c-0.296,0.06-0.56,0.15-0.8,0.259
		c-0.28-0.08-0.56-0.164-0.838-0.259c-1.874-0.635-3.275,0.3-3.906,1.673c-0.003,0.004-0.006,0.009-0.009,0.014
		c-0.41,0.125-0.718,0.266-0.881,0.429c-3.27,3.27,20.891,26.717,34.945,33.914c22.875,11.717,51.1,21.15,64.477,21.551
		c7.471,0.225,25.508-1.571,40.082-3.99c14.574-2.42,27.462-3.436,28.639-2.258c4.414,4.414-2.395,10.627-17.389,15.871
		c-8.518,2.979-15.488,7.08-15.486,9.115c-0.001,3.909,47.201,3.975,73.133,0.099c18.178-2.716,38.381-13.657,55.898-30.274
		c9.438-8.951,13.637-11.083,16.395-8.325c2.039,2.04,1.505,6.639-1.188,10.22c-6.27,8.34-0.682,11.08,16.039,7.867
		c12.191-2.342,26.32-9.18,58.812-28.467c6.824-4.051,18.578-10.096,26.117-13.432c16.498-7.303,21.382-11.516,21.979-20.831
		c6.799-10.996,14.798-21.179,22.765-31.373c0.841,12.128,3.959,24.731,9.286,36.489c8.867,19.568,11.594,23.094,21.682,28.02
		c22.579,11.026,31.87,10.136,53.186-5.098c0.975-0.697,2.502-6.955,3.395-13.908c0.894-6.951,1.679-15.531,1.746-19.066
		c0.419-21.703,8.417-46.275,27.527-84.57c5.432-10.883,13.018-28.186,16.86-38.45c1.602-4.28,3.197-8.343,4.577-11.698
		c6.393,1.338,13.044,1.952,19.615,2.444c-11.139,33.997-23.418,66.006-27.227,69.872c-5.791,5.878-16.049,39.635-15.447,50.833
		c0.9,16.741,4.438,25.471,17.757,43.806c18.647,25.671,41.636,33.027,61.4,19.65c28.989-19.623,29.831-21.502,29.206-65.121
		c-0.316-22.115-1.697-45.421-3.067-51.789c-1.369-6.368-0.079-23.789,2.867-38.712c1.604-8.13,2.928-16.507,3.967-24.64
		c5.559,0.033,11.112-0.017,16.654-0.152c-4.71,40.891-6.126,90.866-2.475,101.817c1.935,5.802,3.935,15.694,4.444,21.981
		s4.147,17.592,8.082,25.12c9.703,18.565,30.584,28.231,52.871,24.476c17.854-3.01,17.074-2.512,23.616-15.107
		c2.694-5.189,7.075-12.818,9.735-16.957c3.15-4.902,3.152-11.504,0.002-18.951c-2.657-6.284-6.098-14.611-7.643-18.505
		c-1.545-3.892-7.768-18.804-13.827-33.137c-8.913-21.083-15.21-45.031-20.149-77.293c6.105-1.362,12.17-2.938,18.185-4.737
		c0.233,3.176,0.441,6.425,0.595,9.437c0.468,9.156,8.148,35.204,17.07,57.886c15.029,38.207,17.221,41.924,29.818,50.555
		c7.476,5.122,14.324,9.219,15.215,9.104c20.895-2.709,38.635-15.066,43.18-30.078c2.768-9.14,0.064-14.727-21.003-43.401
		c-5.268-7.171-9.721-14.05-13.721-21.302c-0.001-1.248,0-2.496,0-3.742c-0.003-11.128-2.635-21.702-6.69-31.991
		c-2.123-5.389-2.752-11.335-2.257-17.14c1.889-1.082,3.762-2.215,5.616-3.422c0.206,1.048,0.417,2.095,0.648,3.134
		c1.139,5.118,3.28,10.031,4.962,14.987c3.697,10.895,7.154,21.864,11.519,32.52c4.335,10.582,9.183,20.871,17.465,28.983
		c7.739,7.579,14.574,15.778,23.357,22.23c1.006,0.739,2.136,1.166,3.307,1.354l0.03,0.048l0.194-0.008
		c1.009,0.134,2.045,0.089,3.062-0.115l9.231-0.349c14.692-0.555,15.425-1.122,19.993-15.476
		c4.611-14.49-0.449-29.168-20.788-60.292c-19.417-29.712-31.294-65.405-25.25-75.876c5.981-10.362,23.631-27.35,32.595-31.372
		c28.904-12.971,45.106-23.474,64.538-41.832C1484.207,455.014,1488.029,449.204,1482.031,443.207z"/>
	<path fill="#F6F6F6" d="M2982.543,146.923c18.506-17.997,21.553-22.657,29.037-44.379c4.598-13.349,8.287-34.377,8.199-46.729
		c-0.174-24.626-8.875-55.931-15.514-55.814c-2.309,0.041-8.145,11.306-12.973,25.036c-4.826,13.73-15.375,34.327-23.439,45.771
		c-8.066,11.444-21.74,31.199-30.389,43.897c-10.018,14.712-21.816,28.027-32.514,36.697
		c-98.012,79.428-191.463,111.591-377.125,129.796c-56.947,5.583-145.311-6.375-261.262-35.359
		c-28.279-7.068-62.162-14.341-75.297-16.161s-29.748-5.23-36.916-7.577c-7.168-2.349-21.631-4.571-32.137-4.941
		c-10.508-0.369-32.391-1.173-48.627-1.786c-33.654-1.271-77.213,10.721-107.631,29.631c-16.965,10.546-18.984,12.782-26.551,29.397
		c-11.805,25.92-12.594,39.118-2.916,48.795c15.635,15.635,10.939,37.674-13.385,62.824c-16.145,16.693-18.465,17.971-37.176,20.457
		c-20.223,2.688-50.305-3.09-88.129-16.928c-29.521-10.8-47.398-5.876-70.338,19.371c-18.795,20.686-19.094,20.819-38.586,17.365
		c-19.207-3.406-52.648,4.603-68.568,16.419c-12.297,9.126-14.094,9.327-27.98,3.115c-17.246-7.714-48.006-9.188-54.578-2.615
		c-5.998,5.997-2.176,11.808,24.09,36.623c19.432,18.358,35.633,28.861,64.537,41.832c8.965,4.022,26.613,21.01,32.596,31.372
		c6.043,10.471-5.834,46.164-25.25,75.876c-20.34,31.124-25.4,45.802-20.789,60.292c4.568,14.354,5.301,14.921,19.994,15.476
		l9.23,0.349c1.018,0.204,2.055,0.249,3.062,0.115l0.195,0.008l0.029-0.048c1.172-0.188,2.301-0.614,3.307-1.354
		c8.783-6.452,15.619-14.651,23.357-22.23c8.283-8.112,13.131-18.401,17.465-28.983c4.365-10.655,7.822-21.625,11.52-32.52
		c1.682-4.956,3.822-9.869,4.961-14.987c0.232-1.039,0.443-2.086,0.648-3.134c1.855,1.207,3.729,2.34,5.617,3.422
		c0.494,5.805-0.135,11.751-2.258,17.14c-4.055,10.289-6.688,20.863-6.689,31.991c0,1.246,0,2.494,0,3.742
		c-4,7.252-8.453,14.131-13.721,21.302c-21.068,28.675-23.771,34.262-21.004,43.401c4.545,15.012,22.285,27.369,43.18,30.078
		c0.891,0.115,7.74-3.981,15.215-9.104c12.598-8.631,14.789-12.348,29.818-50.555c8.922-22.682,16.604-48.729,17.07-57.886
		c0.154-3.012,0.361-6.261,0.596-9.437c6.014,1.8,12.078,3.375,18.184,4.737c-4.939,32.262-11.236,56.21-20.148,77.293
		c-6.061,14.333-12.283,29.245-13.828,33.137c-1.545,3.894-4.984,12.221-7.643,18.505c-3.15,7.447-3.148,14.049,0.002,18.951
		c2.66,4.139,7.041,11.768,9.736,16.957c6.541,12.596,5.762,12.098,23.615,15.107c22.287,3.756,43.168-5.91,52.871-24.476
		c3.936-7.528,7.572-18.833,8.082-25.12s2.51-16.18,4.445-21.981c3.65-10.951,2.234-60.927-2.475-101.817
		c5.541,0.136,11.096,0.186,16.654,0.152c1.039,8.133,2.361,16.51,3.967,24.64c2.945,14.923,4.236,32.344,2.867,38.712
		c-1.371,6.368-2.752,29.674-3.068,51.789c-0.625,43.619,0.217,45.498,29.207,65.121c19.764,13.377,42.752,6.021,61.4-19.65
		c13.318-18.335,16.855-27.064,17.756-43.806c0.602-11.198-9.656-44.955-15.447-50.833c-3.809-3.866-16.088-35.875-27.227-69.872
		c6.572-0.492,13.223-1.106,19.615-2.444c1.381,3.355,2.977,7.418,4.578,11.698c3.842,10.265,11.428,27.567,16.859,38.45
		c19.111,38.295,27.109,62.867,27.527,84.57c0.068,3.535,0.854,12.115,1.746,19.066c0.893,6.953,2.42,13.211,3.395,13.908
		c21.316,15.233,30.607,16.124,53.186,5.098c10.088-4.926,12.814-8.451,21.682-28.02c5.328-11.758,8.445-24.361,9.287-36.489
		c7.967,10.194,15.965,20.377,22.764,31.373c0.598,9.315,5.48,13.528,21.979,20.831c7.539,3.336,19.293,9.381,26.117,13.432
		c32.492,19.287,46.621,26.125,58.812,28.467c16.721,3.213,22.309,0.473,16.039-7.867c-2.691-3.581-3.227-8.18-1.188-10.22
		c2.758-2.758,6.957-0.626,16.395,8.325c17.518,16.617,37.721,27.559,55.898,30.274c25.932,3.876,73.135,3.811,73.133-0.099
		c0.002-2.035-6.969-6.137-15.486-9.115c-14.994-5.244-21.803-11.457-17.389-15.871c1.178-1.178,14.064-0.162,28.639,2.258
		c14.574,2.419,32.611,4.215,40.082,3.99c13.377-0.4,41.602-9.834,64.477-21.551c14.055-7.197,38.215-30.645,34.945-33.914
		c-0.162-0.163-0.471-0.304-0.881-0.429c-0.002-0.005-0.006-0.01-0.008-0.014c-0.633-1.373-2.033-2.308-3.906-1.673
		c-0.279,0.095-0.559,0.179-0.84,0.259c-0.24-0.108-0.504-0.199-0.799-0.259c-8.346-1.689-16.408-4.203-24.346-7.085
		c-6.559-3.574-12.461-8.183-17.49-14.636c-0.295-0.379-0.604-0.7-0.922-0.978l0.326-0.104l-13.699-12.076
		c-19.449-17.148-14.23-21.557,9.676-8.17c33.266,18.629,46.318,22.555,73.881,22.225c27.93-0.334,54.66-7.069,70.42-17.742
		l9.49-6.426l-20.078-2.696c-18.814-2.525-29.625-9.09-24.086-14.628c1.334-1.336,10.859,0.09,21.164,3.167
		c10.307,3.078,23.316,4.165,28.914,2.417s18.945-4.355,29.662-5.794s20.799-3.915,22.402-5.501
		c1.604-1.588,8.119-4.355,14.48-6.152c8.711-2.461,17.189-9.023,34.371-26.6c20.631-21.105,23.094-24.906,25.795-39.8
		c1.641-9.058,1.846-16.468,0.455-16.467c-0.789-0.001-5.826,1.661-13.035,4.249c-0.854,0.062-1.705,0.24-2.535,0.583
		c-11.998,4.95-24.988,5.917-37.846,5.621c-12.781-0.293-25.631-1.482-38.104-4.374c-10.84-2.513-21.188-6.134-31.225-10.469
		c13.521,4.039,34.607,6.631,45.232,5.021c30.439-4.61,96.342-33.295,96.342-41.935c0-1.722-3.713-3.322-8.254-3.56
		c-4.537-0.235-12.357-2.893-17.373-5.904l-9.121-5.477l18.576-0.272c10.219-0.149,19.814-1.508,21.326-3.019
		c1.51-1.512,9.121-4.674,16.914-7.027c18.223-5.506,38.188-25.408,55.58-55.411c10.711-18.476,17.273-38.711,15.891-46.914
		c0.727-4.321,0.918-8.819,1.184-13.269c0.623-10.4,4.264-21.501,13.129-27.743c1.957-1.379,2.721-3.341,2.652-5.252
		c1.484-1.282,1.09-2.332-1.381-3.906c-1.039-1.402-2.578-2.341-4.318-2.286c-4.787-1.976-13.854-3.863-21.389-4.378
		c-28.273-1.929-24.115-8.604,6.424-10.312c30.863-1.725,59.143-11.824,73.607-26.288c9.709-9.71,29.516-42.204,33.301-54.635
		c2.676-8.787,7.945-44.343,9.693-62.319c0.865-3.438,1.576-6.912,2.078-10.426c2.02-14.073,0.932-27.932,4.699-41.541
		c4.895-6.506,8.965-12.296,11.262-16.208c6.797-11.575,5.646-19.975-1.725-12.603c-5.137,5.136-25.41,11.421-28.115,8.716
		C2962.836,168.003,2971.17,157.984,2982.543,146.923z"/>
</g>
<g>
</g>
<g>
</g>
<g>
</g>
<g>
</g>
<g>
</g>
<g>
</g>
<g>
</g>
<g>
</g>
<g>
</g>
<g>
</g>
<g>
</g>
<g>
</g>
<g>
</g>
<g>
</g>
<g>
</g>
</svg>
